<svg width="42" height="28" viewBox="0 0 42 28" fill="none" xmlns="http://www.w3.org/2000/svg">
<g clip-path="url(#clip0_431_190)">
<path fill-rule="evenodd" clip-rule="evenodd" d="M27.02 4.75188H37.5127V1.73975H27.02V4.75188ZM32.1921 10.8014C29.8514 10.8014 28.0738 12.255 27.9026 14.941H36.3001C35.7309 11.7533 34.3183 10.8014 32.1921 10.8014ZM32.52 23.2597C34.6812 23.2597 36.2671 21.8912 36.5909 20.7382H41.136C39.8368 24.9081 37.1538 27.25 32.3364 27.25C26.1889 27.25 22.7388 22.8669 22.7388 17.0507C22.7388 3.35382 42.4538 2.86275 41.4639 18.3297H27.9026C28.0346 21.4705 29.3276 23.2597 32.52 23.2597ZM12.0667 22.6571C14.5475 22.6571 16.2839 21.7004 16.2839 19.1191C16.2839 16.4416 14.7496 15.2802 12.1739 15.2802H5.95829V22.6571H12.0667ZM11.7388 11.2536C13.8031 11.2536 15.2281 10.2903 15.2281 8.05271C15.2281 5.69552 13.57 4.9679 11.3036 4.9679H5.95829V11.2536H11.7388ZM12.4667 0.375C17.3563 0.375 20.7549 1.99515 20.7549 7.03621C20.7549 9.5322 19.7547 11.3923 17.2285 12.6456C20.4621 13.6086 21.9922 16.137 21.9922 19.4592C21.9922 24.733 17.8203 27.25 12.8297 27.25H0.25V0.375H12.4667Z" fill="#FFA322"/>
</g>
<defs>
<clipPath id="clip0_431_190">
<rect width="41.25" height="26.875" fill="white" transform="translate(0.25 0.375)"/>
</clipPath>
</defs>
</svg>
