<svg width="661" height="430" viewBox="0 0 661 430" fill="none" xmlns="http://www.w3.org/2000/svg">
<g clip-path="url(#clip0_420_320)">
<path fill-rule="evenodd" clip-rule="evenodd" d="M428.969 70.3648H597.106V22.2155H428.969V70.3648ZM511.848 167.067C474.341 167.067 445.855 190.304 443.112 233.24H577.675C568.554 182.283 545.918 167.067 511.848 167.067ZM517.102 366.215C551.734 366.215 577.146 344.338 582.335 325.908H655.168C634.349 392.565 591.356 430 514.161 430C415.651 430 360.365 359.935 360.365 266.964C360.365 48.0166 676.284 40.1669 660.422 287.408H443.112C445.227 337.614 465.947 366.215 517.102 366.215ZM189.353 356.582C229.107 356.582 256.932 341.29 256.932 300.026C256.932 257.227 232.346 238.661 191.071 238.661H91.4711V356.582H189.353ZM184.099 174.296C217.178 174.296 240.012 158.898 240.012 123.129C240.012 85.4491 213.443 73.8179 177.126 73.8179H91.4711V174.296H184.099ZM195.764 0.399902C274.116 0.399902 328.575 26.2981 328.575 106.88C328.575 146.779 312.548 176.512 272.067 196.547C323.883 211.94 348.403 252.357 348.403 305.464C348.403 389.766 281.551 430 201.58 430H0V0.399902H195.764Z" fill="#F6F6F6"/>
</g>
<defs>
<clipPath id="clip0_420_320">
<rect width="661" height="429.6" fill="white" transform="translate(0 0.399902)"/>
</clipPath>
</defs>
</svg>
