<svg width="36" height="32" viewBox="0 0 36 32" fill="none" xmlns="http://www.w3.org/2000/svg">
<g clip-path="url(#clip0_431_195)">
<path d="M5.11608 0.19326C3.60303 1.09296 0.622023 4.52256 0.59375 5.42198V6.91076C0.59375 8.79793 2.35518 10.4566 3.95447 10.4566C5.8748 10.4566 7.47479 8.86277 7.47493 6.97107C7.47493 8.86277 9.02007 10.4566 10.9405 10.4566C12.8612 10.4566 14.3567 8.86277 14.3567 6.97107C14.3567 8.86277 15.9996 10.4566 17.9201 10.4566H17.9549C19.8755 10.4566 21.5185 8.86277 21.5185 6.97107C21.5185 8.86277 23.0141 10.4566 24.9345 10.4566C26.8549 10.4566 28.4001 8.86277 28.4001 6.97107C28.4001 8.86277 30.0003 10.4566 31.9205 10.4566C33.5198 10.4566 35.2812 8.79821 35.2812 6.91076V5.42198C35.253 4.52242 32.272 1.09267 30.7592 0.19326C26.0565 0.0279025 22.7963 -0.000695225 17.9374 1.26404e-05C13.0786 0.00043736 6.4544 0.0764621 5.1158 0.19326H5.11608ZM14.3324 9.5678C14.1487 9.88836 13.9213 10.1817 13.6566 10.4392C12.9317 11.149 11.938 11.589 10.8426 11.589C9.78845 11.59 8.77597 11.177 8.02259 10.4386C7.75993 10.181 7.56032 9.90545 7.37753 9.58465L7.37668 9.58522C7.19403 9.90659 6.93957 10.1819 6.67635 10.4399C5.92268 11.1777 4.91031 11.5904 3.85636 11.5895C3.72432 11.5895 3.58691 11.5529 3.4758 11.5147C3.32143 13.1247 3.25626 14.6633 3.23321 15.7851L3.23293 15.7915C3.2301 16.3612 3.22728 16.8297 3.22445 17.4805C3.25414 20.8584 2.8904 28.4289 4.71163 30.289C7.53388 30.948 12.7271 31.2482 17.9372 31.25H17.9381C23.148 31.2482 28.3413 30.948 31.1635 30.289C32.9847 28.4287 32.621 20.8583 32.6507 17.4803C32.6476 16.8297 32.645 16.3612 32.6422 15.7914L32.6418 15.785C32.6189 14.6629 32.5537 13.1244 32.3993 11.5144C32.2882 11.5527 32.151 11.5892 32.0188 11.5892C30.9648 11.5901 29.9525 11.1774 29.1988 10.4396C28.9356 10.1817 28.6811 9.90645 28.4983 9.58493L28.4975 9.58437C28.3145 9.90517 28.1151 10.1808 27.8524 10.4383C27.0991 11.1766 26.0866 11.5896 25.0326 11.5886C23.9373 11.5886 22.9434 11.1483 22.2185 10.4386C21.9538 10.1811 21.7264 9.8878 21.5428 9.56724C21.3611 9.88744 21.1358 10.1807 20.8733 10.4386C20.1197 11.1769 19.1072 11.5898 18.053 11.5888C18.0148 11.5888 17.9767 11.5871 17.9385 11.5859H17.9375C17.8993 11.5871 17.8612 11.5888 17.8226 11.5888C16.7684 11.5898 15.7559 11.1769 15.0023 10.4388C14.7398 10.1809 14.5144 9.88758 14.3328 9.56738L14.3324 9.5678ZM11.4363 13.3181L11.436 13.3195H11.4382C12.5851 13.3219 13.6039 13.3195 14.8663 14.6993C15.8598 14.5949 16.898 14.5428 17.9371 14.5444H17.9379C18.977 14.543 20.0152 14.5949 21.0088 14.6993C22.2712 13.3193 23.2901 13.3218 24.437 13.3195H24.439L24.4387 13.3181C24.9805 13.3181 27.1481 13.3181 28.6585 17.5663L30.2808 23.3941C31.483 27.7296 29.8959 27.8357 27.9162 27.8395C24.9803 27.7301 23.3547 25.5949 23.3547 23.4599C21.7295 23.7267 19.8337 23.86 17.9378 23.8602H17.9369C16.0409 23.8602 14.145 23.7267 12.52 23.4599C12.52 25.5949 10.8943 27.7301 7.95855 27.8395C5.97884 27.8357 4.39186 27.7298 5.59404 23.3941L7.21679 17.5664C8.72716 13.3182 10.8947 13.3182 11.4366 13.3182L11.4363 13.3181ZM17.9371 16.6566V16.6575C17.9342 16.6603 14.8464 19.5003 14.2912 20.5104L16.3133 20.4293V22.1953C16.3133 22.2779 17.1248 22.2443 17.9371 22.2066H17.9379C18.7499 22.2443 19.5615 22.2779 19.5615 22.1953V20.4293L21.5836 20.5104C21.0283 19.5003 17.9378 16.6575 17.9378 16.6575V16.6566L17.9374 16.6569L17.9371 16.6566Z" fill="#FFA322"/>
</g>
<defs>
<clipPath id="clip0_431_195">
<rect width="34.875" height="31.25" fill="white" transform="translate(0.5)"/>
</clipPath>
</defs>
</svg>
