<svg width="558" height="500" viewBox="0 0 558 500" fill="none" xmlns="http://www.w3.org/2000/svg">
<g clip-path="url(#clip0_420_325)">
<path d="M72.7186 1.10893C48.3889 15.5549 0.454633 70.6224 0 85.0638V108.968C0 139.27 28.3237 165.902 54.04 165.902C84.9187 165.902 110.646 140.311 110.649 109.937C110.649 140.311 135.494 165.902 166.375 165.902C197.259 165.902 221.306 140.311 221.306 109.937C221.306 140.311 247.725 165.902 278.606 165.902H279.165C310.049 165.902 336.467 140.311 336.467 109.937C336.467 140.311 360.517 165.902 391.396 165.902C422.277 165.902 447.123 140.311 447.123 109.937C447.123 140.311 472.855 165.902 503.732 165.902C529.448 165.902 557.771 139.274 557.771 108.968V85.0638C557.317 70.6201 509.383 15.5504 485.057 1.10893C409.438 -1.54612 357.014 -2.0053 278.883 -1.99394C200.755 -1.98712 94.2387 -0.766428 72.7141 1.10893H72.7186ZM220.915 151.631C217.963 156.778 214.306 161.488 210.05 165.623C198.393 177.02 182.415 184.085 164.8 184.085C147.85 184.101 131.569 177.469 119.455 165.613C115.231 161.476 112.022 157.053 109.082 151.902L109.069 151.911C106.132 157.071 102.04 161.492 97.8076 165.634C85.6886 177.481 69.4099 184.107 52.4624 184.092C50.3393 184.092 48.1298 183.506 46.3431 182.892C43.8608 208.742 42.8128 233.447 42.4423 251.46L42.4378 251.562C42.3923 260.709 42.3468 268.231 42.3014 278.681C42.7787 332.919 36.9299 454.474 66.2151 484.341C111.597 494.923 195.104 499.742 278.881 499.771H278.895C362.67 499.742 446.177 494.923 491.559 484.341C520.844 454.472 514.995 332.916 515.472 278.679C515.422 268.231 515.381 260.709 515.336 251.56L515.329 251.457C514.961 233.44 513.913 208.738 511.431 182.887C509.644 183.501 507.437 184.087 505.311 184.087C488.364 184.103 472.085 177.476 459.966 165.629C455.734 161.488 451.642 157.069 448.703 151.906L448.689 151.897C445.748 157.048 442.54 161.474 438.317 165.609C426.203 177.464 409.923 184.095 392.974 184.078C375.361 184.078 359.381 177.009 347.724 165.613C343.468 161.478 339.811 156.769 336.858 151.622C333.937 156.764 330.314 161.473 326.093 165.613C313.975 177.467 297.694 184.097 280.743 184.081C280.129 184.081 279.515 184.053 278.902 184.035H278.886C278.272 184.053 277.658 184.081 277.038 184.081C260.087 184.098 243.806 177.468 231.688 165.616C227.467 161.475 223.843 156.766 220.922 151.624L220.915 151.631ZM174.347 211.847L174.343 211.87H174.377C192.819 211.909 209.202 211.87 229.501 234.024C245.477 232.349 262.171 231.513 278.879 231.538H278.893C295.6 231.515 312.294 232.349 328.273 234.024C348.572 211.868 364.955 211.907 383.397 211.87H383.429L383.424 211.847C392.137 211.847 426.992 211.847 451.278 280.058L477.365 373.633C496.696 443.247 471.175 444.949 439.342 445.011C392.133 443.253 365.994 408.97 365.994 374.69C339.861 378.973 309.376 381.114 278.89 381.116H278.877C248.389 381.116 217.904 378.973 191.773 374.69C191.773 408.97 165.632 443.253 118.425 445.011C86.5917 444.949 61.0732 443.249 80.4042 373.633L106.498 280.061C130.784 211.85 165.639 211.85 174.352 211.85L174.347 211.847ZM278.879 265.453V265.467C278.833 265.512 229.181 311.112 220.254 327.331L252.769 326.029V354.384C252.769 355.712 265.817 355.171 278.879 354.566H278.893C291.95 355.171 305 355.712 305 354.384V326.029L337.515 327.331C328.586 311.112 278.89 265.467 278.89 265.467V265.453L278.883 265.458L278.879 265.453Z" fill="#F6F6F6"/>
</g>
<defs>
<clipPath id="clip0_420_325">
<rect width="558" height="500" fill="white"/>
</clipPath>
</defs>
</svg>
