<svg width="500" height="500" viewBox="0 0 500 500" fill="none" xmlns="http://www.w3.org/2000/svg">
<g clip-path="url(#clip0_420_307)">
<path fill-rule="evenodd" clip-rule="evenodd" d="M500 500H400V325.024C400 277.024 378.825 250.244 340.85 250.244C299.525 250.244 275 278.149 275 325.024V500H175V175H275V211.548C275 211.548 306.375 156.494 377.075 156.494C447.8 156.494 500 199.653 500 288.953V500ZM61.05 123.022C27.325 123.022 0 95.474 0 61.499C0 27.549 27.325 0 61.05 0C94.75 0 122.075 27.549 122.075 61.499C122.1 95.474 94.75 123.022 61.05 123.022ZM0 500H125V175H0V500Z" fill="#F6F6F6"/>
</g>
<defs>
<clipPath id="clip0_420_307">
<rect width="500" height="500" fill="white"/>
</clipPath>
</defs>
</svg>
