<svg width="32" height="32" viewBox="0 0 32 32" fill="none" xmlns="http://www.w3.org/2000/svg">
<g clip-path="url(#clip0_431_185)">
<path fill-rule="evenodd" clip-rule="evenodd" d="M31.25 31.25H25V20.314C25 17.314 23.6766 15.6403 21.3031 15.6403C18.7203 15.6403 17.1875 17.3843 17.1875 20.314V31.25H10.9375V10.9375H17.1875V13.2217C17.1875 13.2217 19.1484 9.78088 23.5672 9.78088C27.9875 9.78088 31.25 12.4783 31.25 18.0595V31.25ZM3.81563 7.6889C1.70781 7.6889 0 5.96713 0 3.84369C0 1.72181 1.70781 0 3.81563 0C5.92188 0 7.62968 1.72181 7.62968 3.84369C7.63124 5.96713 5.92188 7.6889 3.81563 7.6889ZM0 31.25H7.8125V10.9375H0V31.25Z" fill="#FFA322"/>
</g>
<defs>
<clipPath id="clip0_431_185">
<rect width="31.25" height="31.25" fill="white"/>
</clipPath>
</defs>
</svg>
