<?xml version="1.0" encoding="UTF-8"?>
<svg id="Layer_6" data-name="Layer 6" xmlns="http://www.w3.org/2000/svg" viewBox="0 0 200 200">
  <defs>
    <style>
      .cls-1 {
        fill: #ffa322;
      }
    </style>
  </defs>
  <path class="cls-1" d="M78.52,53.67l-7.2,2.5c-2.94,1.02-6.15-.53-7.18-3.46l-2.54-7.19c-.29-.81-.84-1.5-1.57-1.96l-6.44-4.07c-2.63-1.66-3.42-5.13-1.77-7.77l4.04-6.46c.46-.73.65-1.59.56-2.45l-.83-7.58c-.34-3.09,1.88-5.87,4.97-6.23l7.57-.87c.85-.1,1.65-.48,2.26-1.09l5.4-5.37c2.2-2.19,5.76-2.19,7.97,0l5.4,5.37c.61.61,1.41.99,2.26,1.09l7.57.87c3.09.36,5.31,3.14,4.97,6.23l-.83,7.58c-.09.86.1,1.72.56,2.45l4.04,6.46c1.65,2.64.85,6.11-1.77,7.77l-6.44,4.07c-.73.46-1.28,1.15-1.57,1.96l-2.54,7.19c-1.03,2.93-4.24,4.48-7.18,3.46l-7.2-2.5c-.81-.28-1.7-.28-2.51,0Z"/>
  <path class="cls-1" d="M48.24,196.12l-10.22,3.54c-2.94,1.02-6.15-.53-7.18-3.46l-3.6-10.2c-.29-.81-.84-1.5-1.57-1.96l-9.14-5.78c-2.63-1.66-3.42-5.13-1.77-7.77l5.73-9.17c.46-.73.65-1.59.56-2.45l-1.18-10.75c-.34-3.09,1.88-5.87,4.97-6.23l10.75-1.24c.85-.1,1.65-.48,2.26-1.09l7.67-7.63c2.2-2.19,5.76-2.19,7.97,0l7.67,7.63c.61.61,1.41.99,2.26,1.09l10.75,1.24c3.09.36,5.31,3.14,4.97,6.23l-1.18,10.75c-.09.86.1,1.72.56,2.45l5.73,9.17c1.65,2.64.85,6.11-1.77,7.77l-9.14,5.78c-.73.46-1.28,1.15-1.57,1.96l-3.6,10.2c-1.03,2.93-4.24,4.48-7.18,3.46l-10.22-3.54c-.81-.28-1.7-.28-2.51,0Z"/>
  <path class="cls-1" d="M141.96,131.46l-13.46,4.67c-2.94,1.02-6.15-.53-7.18-3.46l-4.74-13.44c-.29-.81-.84-1.5-1.57-1.96l-12.05-7.61c-2.63-1.66-3.42-5.13-1.77-7.77l7.55-12.09c.46-.73.65-1.59.56-2.45l-1.56-14.17c-.34-3.09,1.88-5.87,4.97-6.23l14.16-1.63c.85-.1,1.65-.48,2.26-1.09l10.1-10.05c2.2-2.19,5.76-2.19,7.97,0l10.1,10.05c.61.61,1.41.99,2.26,1.09l14.16,1.63c3.09.36,5.31,3.14,4.97,6.23l-1.56,14.17c-.09.86.1,1.72.56,2.45l7.55,12.09c1.65,2.64.85,6.11-1.77,7.77l-12.05,7.61c-.73.46-1.28,1.15-1.57,1.96l-4.74,13.44c-1.03,2.93-4.24,4.48-7.18,3.46l-13.46-4.67c-.81-.28-1.7-.28-2.51,0Z"/>
</svg>