<?xml version="1.0" encoding="UTF-8"?>
<svg id="Layer_6" data-name="Layer 6" xmlns="http://www.w3.org/2000/svg" viewBox="0 0 200 200">
  <defs>
    <style>
      .cls-1 {
        fill: #f6f6f6;
      }

      .cls-2 {
        fill: #ffa322;
      }

      .cls-3 {
        fill: #763614;
      }
    </style>
  </defs>
  <path class="cls-1" d="M183.97,176.99l-56.43-100.01v-31.01c0-1.24.99-2.25,2.21-2.25h6.48c5.98,0,10.83-4.93,10.83-11.02V11.02c0-6.09-4.85-11.02-10.83-11.02H63.76c-5.98,0-10.83,4.93-10.83,11.02v21.69c0,6.09,4.85,11.02,10.83,11.02h6.48c1.22,0,2.21,1.01,2.21,2.25v31.01l-56.43,100.01c-5.78,10.24,1.49,23.01,13.1,23.01h141.75c11.61,0,18.87-12.77,13.1-23.01Z"/>
  <path class="cls-3" d="M65.54,167.07h68.91c5.64,0,9.18-6.21,6.37-11.18l-16.14-28.61c-12.34-7-37.07,10.78-49.36,0l-16.14,28.61c-2.81,4.98.72,11.18,6.37,11.18Z"/>
  <path class="cls-2" d="M134.46,167.07h-68.91c-5.64,0-9.18-6.21-6.37-11.18l16.14-28.61c17.09-6.6,26.31,16.07,49.36,0l16.14,28.61c2.81,4.98-.72,11.18-6.37,11.18Z"/>
</svg>