<svg width="153" height="107" viewBox="0 0 153 107" fill="none" xmlns="http://www.w3.org/2000/svg">
<path d="M51.9972 3.4965V46.6946C51.9972 48.0984 50.5745 49.236 48.817 49.236H29.5994V33.9088C29.5994 32.5474 28.2223 31.4461 26.5181 31.4461H26.4421C24.6694 31.4461 23.2467 32.5837 23.2467 33.9875C23.2467 38.907 23.2467 49.2421 23.2467 49.2421H4.02143C2.26399 49.236 0.841309 48.0984 0.841309 46.6946V3.4965C0.841309 2.09267 2.26399 0.955078 4.02143 0.955078H23.2391V15.5198C23.2391 16.9237 24.6618 18.0613 26.4192 18.0613C28.1767 18.0613 29.5994 16.9237 29.5994 15.5198V0.955078H48.817C50.5745 0.955078 51.9972 2.09267 51.9972 3.4965Z" fill="#E7E6DB"/>
<path d="M140.82 1.2998H125.338V9.03903C125.338 10.4429 123.984 11.5805 122.31 11.5805C121.473 11.5805 120.72 11.2961 120.172 10.8362C119.624 10.3763 119.282 9.74095 119.282 9.03903V1.2998H103.83C100.087 1.2998 97.7741 4.71862 99.6913 7.41737L112.138 27.5127V49.2358H132.535V27.6943L144.959 7.40526C146.861 4.70652 144.548 1.2998 140.812 1.2998H140.82Z" fill="#E7E6DB"/>
<path d="M55.9077 88.9004L56.0674 106.848H27.8496V91.587C27.8496 90.8851 27.492 90.2497 26.9214 89.7899C26.3432 89.33 25.552 89.0456 24.6771 89.0456C22.9196 89.0456 21.4969 90.1832 21.4969 91.587V106.848H1.72388L0.841359 63.7343C0.788103 61.0839 3.45849 58.9116 6.77556 58.9116H18.9863C22.2653 58.9116 24.9205 61.0355 24.9205 63.6556V66.8142L34.9934 58.9116H50.9777C53.7394 58.9116 55.2306 61.5075 53.4275 63.1776L42.472 73.3493L50.0267 78.6318C53.7318 81.2217 55.8773 84.9612 55.9153 88.9004H55.9077Z" fill="#E7E6DB"/>
<path d="M119.381 59.8677H125.239C129.271 59.8677 132.542 62.4817 132.542 65.7008V91.7927H144.73C149.295 91.7927 153 94.7517 153 98.4004V106.848H112.077V65.7008C112.077 62.4817 115.348 59.8677 119.381 59.8677Z" fill="#E7E6DB"/>
<path d="M102.073 49.2362L94.8755 4.15018C94.5788 2.50431 92.5171 1.27596 90.0977 1.30621L80.3596 1.42723L70.3551 1.54825C68.0043 1.57851 66.0414 2.79476 65.7523 4.39827L58.6465 49.2362H77.1794V33.9756C77.1794 32.5717 78.6021 31.4341 80.3596 31.4341C81.2345 31.4341 82.0333 31.7185 82.6039 32.1784C83.1745 32.6383 83.5321 33.2736 83.5321 33.9756V49.2362H102.065H102.073ZM83.5397 19.8586C83.5397 21.2624 82.117 22.4 80.3596 22.4C78.6021 22.4 77.1794 21.2624 77.1794 19.8586V10.9334H83.5397V19.8586Z" fill="#E7E6DB"/>
<path d="M105.245 106.848L98.0479 61.7615C97.7512 60.1156 95.6894 58.8873 93.2701 58.9175L83.5319 59.0386L73.5275 59.1596C71.1766 59.1898 69.2138 60.4061 68.9247 62.0096L61.8188 106.848H80.3518V91.5869C80.3518 90.1831 81.7745 89.0455 83.5319 89.0455C84.4068 89.0455 85.2057 89.3299 85.7763 89.7897C86.3469 90.2496 86.7044 90.885 86.7044 91.5869V106.848H105.237H105.245ZM86.712 77.4699C86.712 78.8737 85.2894 80.0113 83.5319 80.0113C81.7745 80.0113 80.3518 78.8737 80.3518 77.4699V68.5447H86.712V77.4699Z" fill="#E7E6DB"/>
</svg>
