<?xml version="1.0" encoding="UTF-8"?>
<svg xmlns="http://www.w3.org/2000/svg" viewBox="0 0 200 200">
  <defs>
    <style>
      .cls-1 {
        fill: #9b2bb3;
      }

      .cls-2 {
        fill: #fff;
      }

      .cls-3 {
        fill: #232020;
      }

      .cls-4 {
        isolation: isolate;
      }

      .cls-5 {
        fill: #070707;
      }

      .cls-6 {
        mix-blend-mode: hard-light;
      }
    </style>
  </defs>
  <g class="cls-4">
    <g id="Layer_3" data-name="Layer 3">
      <g>
        <g>
          <path class="cls-3" d="M172.71,101.31c-1.96-5.35-4.43-10.52-7.38-15.4-2.04,14.74-16.8,10.17-16.8-14.23s-10.31-31.93-10.75-30.76c-1.84,7.37-14.4,18.08-15.72,11.95.13-19.32-19.85-36.1-19.85-36.1,6.87,22.88-14.76,38.89-14.76,32.28C88.96,9.45,68.16.14,67.85,0c.2.15,10.31,8.11-1.79,31.51-12.01,23.23-4.82,36.89-4.57,37.35l-19.02-21.75c.93,1.11,9.57,12.15-.08,26.85-10.18,15.5-5.6,29.74-5.6,29.74-9.56-2.01-6.93-17.93-6.88-18.3-.04.06-.46.86-1.13,2.27-14.36,30.45-5.03,67.88,19.53,90.51,20.19,18.6,50.01,26.13,76.62,19.36,13.78-3.51,26.72-10.72,36.27-21.24,18.52-20.41,20.71-49.88,11.5-75Z"/>
          <path class="cls-5" d="M47.46,149.15s4.13,23.23,37.57,31.13l-3.16-9.33-3.74.52-11.88-4.98-13.27-9.45-5.51-7.89Z"/>
          <path class="cls-5" d="M147.91,176.63c5.54-5.08-.97-16.75.86-21.74-.78,0-4.36,2.46-4.72,3.75,4.34,6.07,3.86,18,3.86,18Z"/>
          <g>
            <path class="cls-2" d="M148.25,167.55c1.61,4.59-.73,9.96-5.45,11.18-21.06,5.42-37.35,6.26-53.59,3.78-2.85-.44-5.17-2.53-5.86-5.33l-1.18-4.77c-26.02-4.98-39.26-23.64-39.26-44.83,0-25.05,24.95-44.49,54.08-44.49,33.19,0,60.09,20.31,60.09,45.36,0,9.93-5.15,21.71-12.33,29.18l3.49,9.93Z"/>
            <path d="M106.48,185.18c-5.89,0-11.66-.45-17.48-1.34-3.41-.52-6.15-3.01-6.97-6.34l-.98-3.93c-12.27-2.52-22.4-8.26-29.32-16.64-6.66-8.06-10.18-18.21-10.18-29.36,0-25.28,24.87-45.85,55.43-45.85,16.34,0,31.73,4.82,43.31,13.56,11.7,8.83,18.14,20.6,18.14,33.15,0,9.85-4.85,21.6-12.13,29.51l3.22,9.16c.96,2.74.73,5.78-.63,8.34-1.25,2.33-3.29,3.96-5.76,4.6-13.43,3.46-25.26,5.15-36.66,5.15ZM96.99,84.43c-29.07,0-52.72,19.35-52.72,43.14,0,22.33,14.62,39,38.15,43.5.52.1.93.49,1.06,1.01l1.18,4.77c.56,2.27,2.42,3.96,4.75,4.32,16.69,2.56,33.05,1.4,53.04-3.75,1.72-.44,3.16-1.6,4.04-3.25,1.01-1.89,1.18-4.13.47-6.16l-3.49-9.93c-.17-.48-.05-1.02.3-1.39,7.03-7.32,11.95-18.94,11.95-28.24,0-24.26-26.35-44-58.74-44Z"/>
          </g>
          <path class="cls-1" d="M78.63,147.13c-2.07,1.28-4.5,2.02-7.11,2.02-7.46,0-13.51-6.04-13.51-13.5,0-6.11,4.07-11.28,9.66-12.94-4.03,2.49-6.64,7.04-6.38,12.18.35,6.85,5.93,12.42,12.79,12.77,1.59.08,3.12-.11,4.56-.54Z"/>
          <path class="cls-5" d="M82.32,127.55c-.89-.89-1.77-1.77-2.69-2.69,1.02.76,1.92,1.67,2.69,2.69Z"/>
          <path class="cls-5" d="M150.74,128.47c0,7.45-6.05,13.49-13.51,13.49s-13.51-6.04-13.51-13.49,6.05-13.5,13.51-13.5,13.51,6.04,13.51,13.5Z"/>
          <path class="cls-5" d="M120.49,146.75c-.41.96-1.44,1.63-2.68,1.75-.13.01-.26.02-.39.02-1.04,0-1.94-.4-2.48-1.09l-3.94-5.04-2.87,5.72c-.45.89-1.42,1.5-2.61,1.62-.13.01-.27.02-.4.02-1.14,0-2.13-.49-2.64-1.31-.43-.69-.46-1.55-.09-2.29l5.19-10.32c.61-1.21,1.95-1.63,3.01-1.63s1.93.4,2.48,1.09l7.12,9.1c.54.69.66,1.57.31,2.37Z"/>
          <path d="M105.78,184.93c-.61,0-1.16-.41-1.31-1.02l-4.11-16.13c-.18-.73.25-1.46.98-1.65.73-.18,1.47.25,1.65.98l4.11,16.13c.18.73-.25,1.46-.98,1.65-.11.03-.23.04-.34.04Z"/>
          <path d="M138.37,180.74c-.56,0-1.08-.35-1.28-.9l-4.86-13.64c-.25-.71.12-1.48.82-1.73s1.48.12,1.73.82l4.86,13.64c.25.71-.12,1.48-.82,1.73-.15.05-.3.08-.46.08Z"/>
          <path d="M82.17,173.76c-.63,0-1.19-.44-1.33-1.08l-2.16-10.29c-.15-.73.32-1.45,1.05-1.6.73-.15,1.45.32,1.61,1.05l2.16,10.29c.15.73-.32,1.45-1.05,1.6-.09.02-.19.03-.28.03Z"/>
          <path d="M144.71,158.82c-.55,0-1.06-.33-1.27-.88l-1.96-5.17c-.27-.7.09-1.48.79-1.75.7-.26,1.48.09,1.75.79l1.96,5.17c.27.7-.09,1.48-.79,1.75-.16.06-.32.09-.48.09Z"/>
          <path class="cls-5" d="M85.03,135.65c0,4.85-2.56,9.1-6.4,11.48-1.43.43-2.97.62-4.56.54-6.86-.34-12.44-5.91-12.79-12.77-.26-5.14,2.35-9.69,6.38-12.18,1.22-.36,2.52-.56,3.86-.56,3.05,0,5.86,1.01,8.12,2.71.92.92,1.8,1.8,2.69,2.69,1.7,2.26,2.7,5.06,2.7,8.1Z"/>
          <path class="cls-1" d="M144.34,139.95c-2.07,1.28-4.5,2.02-7.11,2.02-7.46,0-13.51-6.04-13.51-13.5,0-6.11,4.07-11.28,9.66-12.94-4.03,2.49-6.64,7.04-6.38,12.18.35,6.85,5.93,12.42,12.79,12.77,1.59.08,3.12-.11,4.56-.54Z"/>
          <g class="cls-6">
            <path class="cls-1" d="M79.72,160.79s-10.63,5.92-22.98,1.32c6.3,5.88,25.78,11.02,25.78,11.02l-2.8-12.34Z"/>
          </g>
          <g class="cls-6">
            <path class="cls-1" d="M142.34,151.79s6.7-1.63,10.48-6.44c0,0-7.42,13.47-8.63,12.65-1.39-2.39-1.85-6.21-1.85-6.21Z"/>
          </g>
        </g>
        <path d="M106.48,185.18c-5.89,0-11.66-.45-17.48-1.34-3.41-.52-6.15-3.01-6.97-6.34l-.98-3.93c-12.27-2.52-22.4-8.26-29.32-16.64-6.66-8.06-10.18-18.21-10.18-29.36,0-25.28,24.87-45.85,55.43-45.85,16.34,0,31.73,4.82,43.31,13.56,11.7,8.83,18.14,20.6,18.14,33.15,0,9.85-4.85,21.6-12.13,29.51l3.22,9.16c.96,2.74.73,5.78-.63,8.34-1.25,2.33-3.29,3.96-5.76,4.6-13.43,3.46-25.26,5.15-36.66,5.15ZM96.99,84.43c-29.07,0-52.72,19.35-52.72,43.14,0,22.33,14.62,39,38.15,43.5.52.1.93.49,1.06,1.01l1.18,4.77c.56,2.27,2.42,3.96,4.75,4.32,16.69,2.56,33.05,1.4,53.04-3.75,1.72-.44,3.16-1.6,4.04-3.25,1.01-1.89,1.18-4.13.47-6.16l-3.49-9.93c-.17-.48-.05-1.02.3-1.39,7.03-7.32,11.95-18.94,11.95-28.24,0-24.26-26.35-44-58.74-44Z"/>
        <path d="M82.17,173.76c-.63,0-1.19-.44-1.33-1.08l-2.16-10.29c-.15-.73.32-1.45,1.05-1.6.73-.15,1.45.32,1.61,1.05l2.16,10.29c.15.73-.32,1.45-1.05,1.6-.09.02-.19.03-.28.03Z"/>
        <path d="M144.71,158.82c-.55,0-1.06-.33-1.27-.88l-1.96-5.17c-.27-.7.09-1.48.79-1.75.7-.26,1.48.09,1.75.79l1.96,5.17c.27.7-.09,1.48-.79,1.75-.16.06-.32.09-.48.09Z"/>
      </g>
    </g>
  </g>
</svg>