<?xml version="1.0" encoding="UTF-8"?>
<svg id="Layer_6" data-name="Layer 6" xmlns="http://www.w3.org/2000/svg" viewBox="0 0 395 80">
  <path d="M67.18,4.21v71.58c0,2.32-1.87,4.21-4.18,4.21h-25.24v-25.4c0-2.26-1.81-4.08-4.05-4.08h-.1c-2.33,0-4.2,1.88-4.2,4.21,0,8.15,0,25.28,0,25.28H4.18c-2.31,0-4.18-1.88-4.18-4.21V4.21C0,1.88,1.87,0,4.18,0h25.24v24.13c0,2.32,1.87,4.21,4.18,4.21h0c2.31,0,4.18-1.88,4.18-4.21V0s25.24,0,25.24,0c2.31,0,4.18,1.88,4.18,4.21Z"/>
  <path d="M183.84.57h-20.33v12.82c0,2.33-1.78,4.21-3.97,4.21-1.1,0-2.09-.47-2.81-1.23-.72-.76-1.16-1.81-1.16-2.98V.57h-20.29c-4.91,0-7.95,5.67-5.44,10.13l16.35,33.3v35.99h26.79v-35.7l16.31-33.61c2.5-4.47-.54-10.12-5.45-10.12Z"/>
  <path d="M267.48,50.26l.21,29.74h-37.07v-25.29c0-1.16-.47-2.21-1.22-2.98-.76-.76-1.8-1.23-2.95-1.23-2.3,0-4.18,1.88-4.18,4.21v25.29h-25.95l-1.16-71.44c-.07-4.39,3.44-7.99,7.8-7.99h16.03c4.31,0,7.8,3.52,7.8,7.86v5.24l13.23-13.1h20.99c3.63,0,5.59,4.3,3.22,7.07l-14.39,16.85,9.92,8.75c4.87,4.3,7.68,10.49,7.73,17.01Z"/>
  <path d="M350.84,2.15h7.7c5.3,0,9.59,4.33,9.59,9.67v43.23h16.01c6,0,10.86,4.9,10.86,10.95v14h-53.75V11.82c0-5.34,4.29-9.67,9.59-9.67Z"/>
  <path d="M132.95,80L123.5,5.29c-.39-2.73-3.09-4.77-6.27-4.71l-12.79.2-13.14.2c-3.09.05-5.66,2.06-6.05,4.72l-9.33,74.3h24.34v-25.29c0-2.32,1.87-4.21,4.18-4.21,1.15,0,2.2.47,2.95,1.23.75.76,1.22,1.81,1.22,2.98v25.29h24.34ZM108.61,31.32c0,2.32-1.87,4.21-4.18,4.21s-4.18-1.89-4.18-4.21v-14.79h8.35v14.79Z"/>
  <path d="M332.28,80l-9.46-74.71c-.39-2.73-3.09-4.77-6.27-4.71l-12.79.2-13.14.2c-3.09.05-5.66,2.06-6.05,4.72l-9.33,74.3h24.34v-25.29c0-2.32,1.87-4.21,4.18-4.21,1.15,0,2.2.47,2.95,1.23.75.76,1.22,1.81,1.22,2.98v25.29h24.34ZM307.94,31.32c0,2.32-1.87,4.21-4.18,4.21s-4.18-1.89-4.18-4.21v-14.79h8.35v14.79Z"/>
</svg>