<?xml version="1.0" encoding="UTF-8"?>
<svg id="Layer_6" data-name="Layer 6" xmlns="http://www.w3.org/2000/svg" viewBox="0 0 200 200">
  <path d="M67.24,16.7v71.39c0,2.32-1.87,4.2-4.18,4.2h-25.26v-25.33c0-2.25-1.81-4.07-4.05-4.07h-.1c-2.33,0-4.2,1.88-4.2,4.2,0,8.13,0,25.21,0,25.21H4.18C1.87,92.29,0,90.41,0,88.09V16.7C0,14.38,1.87,12.5,4.18,12.5h25.26v24.07c0,2.32,1.87,4.2,4.18,4.2h0c2.31,0,4.18-1.88,4.18-4.2V12.5s25.26,0,25.26,0c2.31,0,4.18,1.88,4.18,4.2Z"/>
  <path d="M183.99,13.07h-20.35v12.79c0,2.32-1.78,4.2-3.98,4.2-1.1,0-2.09-.47-2.81-1.23-.72-.76-1.17-1.81-1.17-2.97v-12.79h-20.31c-4.92,0-7.96,5.65-5.44,10.11l16.36,33.21v35.9h26.81v-35.6l16.33-33.53c2.5-4.46-.54-10.09-5.45-10.09Z"/>
  <path d="M72.38,157.84l.21,29.66h-37.09v-25.22c0-1.16-.47-2.21-1.22-2.97-.76-.76-1.8-1.23-2.95-1.23-2.31,0-4.18,1.88-4.18,4.2v25.22H1.16L0,116.25c-.07-4.38,3.44-7.97,7.8-7.97h16.05c4.31,0,7.8,3.51,7.8,7.84v5.22l13.24-13.06h21.01c3.63,0,5.59,4.29,3.22,7.05l-14.4,16.81,9.93,8.73c4.87,4.28,7.69,10.46,7.74,16.97Z"/>
  <path d="M155.81,109.86h7.7c5.3,0,9.6,4.32,9.6,9.64v43.12h16.02c6,0,10.87,4.89,10.87,10.92v13.96h-53.79v-68c0-5.32,4.3-9.64,9.6-9.64Z"/>
  <path d="M133.06,92.29l-9.46-74.51c-.39-2.72-3.1-4.75-6.28-4.7l-12.8.2-13.15.2c-3.09.05-5.67,2.06-6.05,4.71l-9.34,74.1h24.36v-25.22c0-2.32,1.87-4.2,4.18-4.2,1.15,0,2.2.47,2.95,1.23.75.76,1.22,1.81,1.22,2.97v25.22h24.36ZM108.7,43.74c0,2.32-1.87,4.2-4.18,4.2s-4.18-1.88-4.18-4.2v-14.75h8.36v14.75Z"/>
  <path d="M137.23,187.5l-9.46-74.51c-.39-2.72-3.1-4.75-6.28-4.7l-12.8.2-13.15.2c-3.09.05-5.67,2.06-6.05,4.71l-9.34,74.1h24.36v-25.22c0-2.32,1.87-4.2,4.18-4.2,1.15,0,2.2.47,2.95,1.23.75.76,1.22,1.81,1.22,2.97v25.22h24.36ZM112.87,138.95c0,2.32-1.87,4.2-4.18,4.2s-4.18-1.88-4.18-4.2v-14.75h8.36v14.75Z"/>
</svg>