<?xml version="1.0" encoding="UTF-8"?>
<svg id="Layer_6" data-name="Layer 6" xmlns="http://www.w3.org/2000/svg" viewBox="0 0 200 200">
  <defs>
    <style>
      .cls-1 {
        fill: #ffb8ff;
      }
    </style>
  </defs>
  <path class="cls-1" d="M95.32,184.14l-20.17,7.17c-10.81,3.84-22.67-1.87-26.4-12.71l-7.31-21.22c-1.02-2.95-3-5.48-5.62-7.18l-18.89-12.23c-9.38-6.07-12.22-18.51-6.4-28.05l12.02-19.71c1.6-2.63,2.29-5.71,1.96-8.77l-2.46-22.93c-1.21-11.24,6.86-21.35,18.08-22.68l21.61-2.56c3.16-.37,6.1-1.82,8.33-4.09l15.21-15.5c8.08-8.24,21.35-8.24,29.44,0l15.21,15.5c2.23,2.27,5.17,3.72,8.33,4.09l21.61,2.56c11.23,1.33,19.29,11.44,18.08,22.68l-2.46,22.93c-.33,3.06.36,6.14,1.96,8.77l12.02,19.71c5.82,9.54,2.98,21.97-6.4,28.05l-18.89,12.23c-2.62,1.7-4.6,4.23-5.62,7.18l-7.31,21.22c-3.74,10.84-15.6,16.55-26.4,12.71l-20.17-7.17c-3.03-1.08-6.33-1.08-9.36,0Z"/>
</svg>