<svg width="300" height="300" viewBox="0 0 300 300" fill="none" xmlns="http://www.w3.org/2000/svg">
<g clip-path="url(#clip0_420_188)">
<path d="M137.322 293.232L127.286 296.77C97.6484 307.217 65.2735 291.379 54.8228 261.331L51.284 251.165C48.381 242.853 42.8239 235.748 35.4974 231.058L26.5397 225.302C0.0536645 208.256 -7.96403 172.676 8.65195 145.661L14.2643 136.506C18.8538 129.037 20.8444 120.191 19.9044 111.429L18.7432 100.702C15.3149 69.0253 37.7092 40.494 68.8952 36.8433L79.4288 35.6077C88.0548 34.5968 96.1001 30.6653 102.238 24.4311L109.758 16.8209C131.986 -5.64472 167.928 -5.64472 190.184 16.8209L197.704 24.4311C203.869 30.6372 211.887 34.5968 220.513 35.6077L231.046 36.8433C262.205 40.494 284.599 69.0253 281.198 100.702L280.037 111.429C279.097 120.191 281.088 129.037 285.677 136.506L291.29 145.661C307.906 172.676 299.915 208.256 273.402 225.302L264.444 231.058C257.118 235.776 251.533 242.853 248.658 251.165L245.119 261.331C234.668 291.379 202.293 307.217 172.655 296.77L162.619 293.232C154.408 290.34 145.506 290.34 137.294 293.232H137.322Z" fill="#403C3C"/>
</g>
<defs>
<clipPath id="clip0_420_188">
<rect width="300" height="300" fill="white"/>
</clipPath>
</defs>
</svg>
