<svg width="20" height="20" viewBox="0 0 20 20" fill="none" xmlns="http://www.w3.org/2000/svg">
<g clip-path="url(#clip0_316_468)">
<path d="M9.45543 19.3988L8.81983 19.6229C6.94276 20.2845 4.89235 19.2815 4.23048 17.3784L4.00635 16.7346C3.8225 16.2082 3.47055 15.7582 3.00654 15.4612L2.43922 15.0966C0.761766 14.017 0.253979 11.7636 1.30632 10.0527L1.66178 9.47288C1.95244 8.99979 2.07851 8.43956 2.01898 7.88466L1.94544 7.20526C1.72831 5.19908 3.14662 3.3921 5.12173 3.16089L5.78886 3.08263C6.33517 3.01861 6.84471 2.76961 7.23343 2.37478L7.7097 1.8928C9.11749 0.469978 11.3938 0.469978 12.8033 1.8928L13.2796 2.37478C13.6701 2.76783 14.1779 3.01861 14.7242 3.08263L15.3913 3.16089C17.3647 3.3921 18.783 5.19908 18.5676 7.20526L18.494 7.88466C18.4345 8.43956 18.5606 8.99979 18.8513 9.47288L19.2067 10.0527C20.259 11.7636 19.753 14.017 18.0738 15.0966L17.5065 15.4612C17.0425 15.76 16.6888 16.2082 16.5067 16.7346L16.2825 17.3784C15.6207 19.2815 13.5703 20.2845 11.6932 19.6229L11.0576 19.3988C10.5375 19.2156 9.97373 19.2156 9.45368 19.3988H9.45543Z" fill="#FF1313"/>
</g>
<defs>
<clipPath id="clip0_316_468">
<rect width="19" height="19" fill="white" transform="translate(0.758362 0.827637)"/>
</clipPath>
</defs>
</svg>
